<?xml version="1.0"?>
<svg xmlns="http://www.w3.org/2000/svg" height="512px" viewBox="-31 0 512 512" width="512px"><g><path d="m240 91c0-33.089844-26.910156-60-60-60s-60 26.910156-60 60 26.910156 60 60 60 60-26.910156 60-60zm0 0" data-original="#000000" class="active-path" data-old_color="#000000" fill="#727272"/><path d="m45 91c24.8125 0 45-20.1875 45-45s-20.1875-46-45-46-45 21.1875-45 46 20.1875 45 45 45zm0 0" data-original="#000000" class="active-path" data-old_color="#000000" fill="#727272"/><path d="m120 371.84375c0 56.425781 41.570312 104.589844 94.628906 109.671875 30.132813 2.785156 58.84375-6.664063 80.992188-26.804687 21.839844-19.878907 34.378906-48.195313 34.378906-77.710938v-67.015625c-15.90625 4.714844-32.636719 3.703125-48.207031-3.078125-4.027344-1.75-7.730469-4.078125-11.34375-6.511719-5.101563.757813-10.191407 1.605469-15.449219 1.605469-15.402344 0-30.132812-3.585938-43.609375-9.792969-25.976563 21.304688-57.75 35.078125-91.390625 38.769531zm165-39.84375c8.285156 0 15 6.714844 15 15s-6.714844 15-15 15-15-6.714844-15-15 6.714844-15 15-15zm-90 60c8.289062 0 15 6.710938 15 15 0 8.277344 6.722656 15 15 15s15-6.722656 15-15c0-8.289062 6.710938-15 15-15s15 6.710938 15 15c0 24.8125-20.1875 45-45 45s-45-20.1875-45-45c0-8.289062 6.710938-15 15-15zm-30-60c8.285156 0 15 6.714844 15 15s-6.714844 15-15 15-15-6.714844-15-15 6.714844-15 15-15zm0 0" data-original="#000000" class="active-path" data-old_color="#000000" fill="#727272"/><path d="m90 371.84375v-54.886719c0-8.144531 6.503906-14.8125 14.648438-15 29.140624-.671875 57.1875-10.53125 80.480468-27.296875-1.476562-1.339844-3.167968-2.386718-4.574218-3.816406-5.082032.746094-10.222657 1.109375-15.421876 1.109375-2.695312 0-5.378906-.101563-8.058593-.304687-16.875 18.910156-41.351563 30.351562-67.074219 30.351562-21.546875 0-41.085938-7.921875-56.597656-20.597656-2.152344 11.667968-3.402344 23.53125-3.402344 35.597656-.664062 5.25 4.394531 32.765625-22.28125 86.835938-5.125 10.355468-7.71875 21.519531-7.71875 33.164062 0 41.351562 33.648438 75 75 75h149.871094c-77.078125-.195312-134.871094-65.960938-134.871094-140.15625zm0 0" data-original="#000000" class="active-path" data-old_color="#000000" fill="#727272"/><path d="m315.804688 476.902344c-25.140626 22.859375-56.851563 35.058594-90.46875 35.097656h149.664062c41.351562 0 75-33.648438 75-75 0-11.644531-2.59375-22.808594-7.71875-33.148438-27.183594-55.121093-21.570312-81.238281-22.28125-86.851562 0-19.433594-3.152344-38.558594-8.757812-56.933594-15.597657 7.433594-32.84375 11.933594-51.242188 11.933594-9.609375 0-19.015625-1.128906-28.167969-3.382812-4.664062 5.019531-9.851562 9.476562-15.363281 13.457031 4.230469-.675781 8.429688-1.78125 12.460938-3.804688l9.347656-4.6875c4.628906-2.328125 10.164062-2.097656 14.601562.65625 4.425782 2.726563 7.121094 7.5625 7.121094 12.761719v90c0 37.9375-16.113281 74.355469-44.195312 99.902344zm0 0" data-original="#000000" class="active-path" data-old_color="#000000" fill="#727272"/><path d="m90 272c23.042969 0 43.578125-13.445312 53.496094-33.265625 15.953125 4.90625 33.207031 4.113281 48.355468-1.6875 13.535157 21.417969 37.234376 34.953125 63.148438 34.953125 28.183594 0 53.058594-15.394531 65.84375-39.183594 12.203125 6.046875 25.460938 9.183594 39.15625 9.183594 49.628906 0 90-41.371094 90-91s-40.371094-90-90-90c-11.191406 0-22.234375 2.195312-32.945312 6.519531-18.730469-9.5625-41.957032-7.832031-59.4375 3.585938 1.457031 6.417969 2.382812 13.039062 2.382812 19.894531 0 49.628906-40.371094 90-90 90-35.4375 0-65.851562-20.761719-80.523438-50.597656-3.527343 6.484375-6.453124 13.289062-7.953124 20.613281-33.75-1.128906-61.523438 27.367187-61.523438 60.984375 0 33.089844 26.910156 60 60 60zm255-151c24.8125 0 45 20.1875 45 45 0 8.289062-6.710938 15-15 15s-15-6.710938-15-15c0-8.277344-6.722656-15-15-15-8.289062 0-15-6.710938-15-15s6.710938-15 15-15zm-90 30c8.285156 0 15 6.714844 15 15s-6.714844 15-15 15-15-6.714844-15-15 6.714844-15 15-15zm0 0" data-original="#000000" class="active-path" data-old_color="#000000" fill="#727272"/><path d="m30 136c0 8.285156-6.714844 15-15 15s-15-6.714844-15-15 6.714844-15 15-15 15 6.714844 15 15zm0 0" data-original="#000000" class="active-path" data-old_color="#000000" fill="#727272"/></g> </svg>
